# xmcd
#
# Track frame offsets:
#	150
#	20572
#	34336
#	52977
#	70228
#	89652
#	102909
#	119288
#	138187
#	152543
#	166452
#	180569
#	197958
#	219057
#	244652
#	260124
#	275272
#
# Disc length: 3909 seconds
#
# Revision: 1
# Processed by: cddbd v1.5.1PL0 Copyright (c) Steve Scherf et al.
# Submitted via: audiograbber 1.83.01
#
DISCID=ef0f4311
DTITLE=Eric Clapton - Backstage BS5517
DYEAR=1900
DGENRE=Karaoke
TTITLE0=Tears In Heaven
TTITLE1=After Midnight
TTITLE2=I Shot The Sheriff
TTITLE3=Lay Down Sally
TTITLE4=Sunshine Of Your Love
TTITLE5=Strangre Brew
TTITLE6=White Room
TTITLE7=Crossroads
TTITLE8=Born Under A Bad Sign
TTITLE9=Forever Man
TTITLE10=Knock On Wood
TTITLE11=See What Love Can Do
TTITLE12=She's Waiting
TTITLE13=Wonderful Tonight
TTITLE14=Cocaine
TTITLE15=Blues Power
TTITLE16=I Can't Stand It
EXTD=
EXTT0=
EXTT1=
EXTT2=
EXTT3=
EXTT4=
EXTT5=
EXTT6=
EXTT7=
EXTT8=
EXTT9=
EXTT10=
EXTT11=
EXTT12=
EXTT13=
EXTT14=
EXTT15=
EXTT16=
PLAYORDER=
